<svg width="2254" height="1629" viewBox="0 0 2254 1629" fill="none" xmlns="http://www.w3.org/2000/svg">
<g clip-path="url(#clip0_31_470)">
<rect width="2254" height="1629" fill="white"/>
<rect x="-4" y="1251" width="1782" height="339" fill="#D9D9D9" fill-opacity="0.5"/>
<path d="M311.5 276.5H1598.5V1215.5H311.5V276.5Z" fill="#FFF069" stroke="black" stroke-width="5"/>
<rect x="382" y="316" width="340" height="396" fill="#BDC3C7" stroke="black" stroke-width="4"/>
<rect x="789" y="316" width="330" height="396" fill="#BDC3C7" stroke="black" stroke-width="4"/>
<rect x="1209" y="316" width="337" height="396" fill="#BDC3C7" stroke="black" stroke-width="4"/>
<rect x="1206" y="781" width="337" height="379" fill="#BDC3C7" stroke="black" stroke-width="4"/>
<rect x="795" y="781" width="330" height="379" fill="#BDC3C7" stroke="black" stroke-width="4"/>
<rect x="385" y="781" width="340" height="379" fill="#BDC3C7" stroke="black" stroke-width="4"/>
<rect width="1601" height="57" fill="#D9D9D9"/>
<rect x="1658" y="1629" width="1629" height="521" transform="rotate(-90 1658 1629)" fill="#D9D9D9"/>
<rect x="550.5" y="315.5" width="172" height="176" fill="#FFA500" stroke="black" stroke-width="3"/>
<rect x="384.5" y="780.5" width="172" height="196" fill="#FFA500" stroke="black" stroke-width="3"/>
<rect x="794.5" y="979.5" width="172" height="181" fill="#FFA500" stroke="black" stroke-width="3"/>
<rect x="788.5" y="315.5" width="164" height="209" fill="#FFA500" stroke="black" stroke-width="3"/>
<rect x="955.5" y="315.5" width="164" height="397" fill="#FF8A00" stroke="black" stroke-width="3"/>
<rect x="1208.5" y="315.5" width="164" height="397" fill="#FF8A00" stroke="black" stroke-width="3"/>
<rect x="1375.5" y="315.5" width="171" height="209" fill="#FFA500" stroke="black" stroke-width="3"/>
<rect x="1376" y="528" width="170" height="184" fill="#FFA500" stroke="black" stroke-width="4"/>
<rect x="969.5" y="979.5" width="156" height="181" fill="#FFA500" stroke="black" stroke-width="3"/>
<rect x="1206.5" y="979.5" width="170" height="181" fill="#FFA500" stroke="black" stroke-width="3"/>
<rect x="1379.5" y="979.5" width="162" height="181" fill="#FFA500" stroke="black" stroke-width="3"/>
<rect x="1379.5" y="780.5" width="162" height="196" fill="#FFA500" stroke="black" stroke-width="3"/>
<rect x="118.5" y="1483.5" width="51" height="44" fill="#FF8A00" stroke="black" stroke-width="3"/>
<rect x="118.5" y="1537.5" width="51" height="44" fill="#FFA500" stroke="black" stroke-width="3"/>
<path d="M216.545 1500H213.727C213.561 1499.19 213.269 1498.48 212.852 1497.86C212.443 1497.25 211.943 1496.73 211.352 1496.32C210.769 1495.89 210.121 1495.58 209.409 1495.36C208.697 1495.15 207.955 1495.05 207.182 1495.05C205.773 1495.05 204.496 1495.4 203.352 1496.11C202.216 1496.83 201.311 1497.88 200.636 1499.26C199.97 1500.65 199.636 1502.35 199.636 1504.36C199.636 1506.38 199.97 1508.08 200.636 1509.47C201.311 1510.85 202.216 1511.9 203.352 1512.61C204.496 1513.33 205.773 1513.68 207.182 1513.68C207.955 1513.68 208.697 1513.58 209.409 1513.36C210.121 1513.15 210.769 1512.84 211.352 1512.42C211.943 1512 212.443 1511.48 212.852 1510.86C213.269 1510.24 213.561 1509.53 213.727 1508.73H216.545C216.333 1509.92 215.947 1510.98 215.386 1511.92C214.826 1512.86 214.129 1513.66 213.295 1514.32C212.462 1514.97 211.527 1515.47 210.489 1515.81C209.458 1516.15 208.356 1516.32 207.182 1516.32C205.197 1516.32 203.432 1515.83 201.886 1514.86C200.341 1513.89 199.125 1512.52 198.239 1510.73C197.352 1508.94 196.909 1506.82 196.909 1504.36C196.909 1501.91 197.352 1499.79 198.239 1498C199.125 1496.21 200.341 1494.83 201.886 1493.86C203.432 1492.89 205.197 1492.41 207.182 1492.41C208.356 1492.41 209.458 1492.58 210.489 1492.92C211.527 1493.26 212.462 1493.76 213.295 1494.42C214.129 1495.07 214.826 1495.87 215.386 1496.81C215.947 1497.74 216.333 1498.8 216.545 1500ZM227.827 1516.36C226.251 1516.36 224.868 1515.99 223.679 1515.24C222.497 1514.49 221.573 1513.44 220.906 1512.09C220.247 1510.74 219.918 1509.17 219.918 1507.36C219.918 1505.55 220.247 1503.96 220.906 1502.6C221.573 1501.25 222.497 1500.19 223.679 1499.44C224.868 1498.69 226.251 1498.32 227.827 1498.32C229.402 1498.32 230.781 1498.69 231.963 1499.44C233.152 1500.19 234.077 1501.25 234.736 1502.6C235.402 1503.96 235.736 1505.55 235.736 1507.36C235.736 1509.17 235.402 1510.74 234.736 1512.09C234.077 1513.44 233.152 1514.49 231.963 1515.24C230.781 1515.99 229.402 1516.36 227.827 1516.36ZM227.827 1513.95C229.024 1513.95 230.009 1513.65 230.781 1513.03C231.554 1512.42 232.126 1511.61 232.497 1510.61C232.868 1509.61 233.054 1508.53 233.054 1507.36C233.054 1506.2 232.868 1505.11 232.497 1504.1C232.126 1503.09 231.554 1502.28 230.781 1501.66C230.009 1501.04 229.024 1500.73 227.827 1500.73C226.63 1500.73 225.645 1501.04 224.872 1501.66C224.099 1502.28 223.527 1503.09 223.156 1504.1C222.785 1505.11 222.599 1506.2 222.599 1507.36C222.599 1508.53 222.785 1509.61 223.156 1510.61C223.527 1511.61 224.099 1512.42 224.872 1513.03C225.645 1513.65 226.63 1513.95 227.827 1513.95ZM242.511 1505.5V1516H239.83V1498.55H242.42V1501.27H242.648C243.057 1500.39 243.678 1499.67 244.511 1499.14C245.345 1498.59 246.42 1498.32 247.739 1498.32C248.92 1498.32 249.955 1498.56 250.841 1499.05C251.727 1499.52 252.417 1500.25 252.909 1501.23C253.402 1502.2 253.648 1503.42 253.648 1504.91V1516H250.966V1505.09C250.966 1503.72 250.61 1502.65 249.898 1501.89C249.186 1501.11 248.208 1500.73 246.966 1500.73C246.11 1500.73 245.345 1500.91 244.67 1501.28C244.004 1501.66 243.477 1502.2 243.091 1502.91C242.705 1503.62 242.511 1504.48 242.511 1505.5ZM261.23 1505.5V1516H258.548V1498.55H261.139V1501.27H261.366C261.776 1500.39 262.397 1499.67 263.23 1499.14C264.063 1498.59 265.139 1498.32 266.457 1498.32C267.639 1498.32 268.673 1498.56 269.56 1499.05C270.446 1499.52 271.135 1500.25 271.628 1501.23C272.12 1502.2 272.366 1503.42 272.366 1504.91V1516H269.685V1505.09C269.685 1503.72 269.329 1502.65 268.616 1501.89C267.904 1501.11 266.927 1500.73 265.685 1500.73C264.829 1500.73 264.063 1500.91 263.389 1501.28C262.723 1501.66 262.196 1502.2 261.81 1502.91C261.423 1503.62 261.23 1504.48 261.23 1505.5ZM284.585 1516.36C282.903 1516.36 281.453 1515.99 280.233 1515.25C279.021 1514.5 278.085 1513.45 277.426 1512.11C276.775 1510.77 276.449 1509.2 276.449 1507.41C276.449 1505.62 276.775 1504.05 277.426 1502.68C278.085 1501.31 279.002 1500.24 280.176 1499.48C281.358 1498.7 282.737 1498.32 284.312 1498.32C285.222 1498.32 286.119 1498.47 287.006 1498.77C287.892 1499.08 288.699 1499.57 289.426 1500.25C290.153 1500.92 290.733 1501.82 291.165 1502.93C291.597 1504.05 291.812 1505.42 291.812 1507.05V1508.18H278.358V1505.86H289.085C289.085 1504.88 288.888 1504 288.494 1503.23C288.108 1502.45 287.555 1501.84 286.835 1501.4C286.123 1500.95 285.282 1500.73 284.312 1500.73C283.244 1500.73 282.32 1500.99 281.54 1501.52C280.767 1502.05 280.172 1502.73 279.756 1503.57C279.339 1504.41 279.131 1505.31 279.131 1506.27V1507.82C279.131 1509.14 279.358 1510.25 279.812 1511.17C280.275 1512.08 280.915 1512.77 281.733 1513.25C282.551 1513.72 283.502 1513.95 284.585 1513.95C285.29 1513.95 285.926 1513.86 286.494 1513.66C287.07 1513.45 287.566 1513.15 287.983 1512.75C288.4 1512.34 288.722 1511.83 288.949 1511.23L291.54 1511.95C291.267 1512.83 290.809 1513.61 290.165 1514.27C289.521 1514.93 288.725 1515.45 287.778 1515.82C286.831 1516.18 285.767 1516.36 284.585 1516.36ZM302.983 1516.36C301.347 1516.36 299.938 1515.98 298.756 1515.2C297.574 1514.43 296.665 1513.37 296.028 1512.01C295.392 1510.66 295.074 1509.11 295.074 1507.36C295.074 1505.59 295.4 1504.03 296.051 1502.67C296.71 1501.31 297.627 1500.24 298.801 1499.48C299.983 1498.7 301.362 1498.32 302.938 1498.32C304.165 1498.32 305.271 1498.55 306.256 1499C307.241 1499.45 308.047 1500.09 308.676 1500.91C309.305 1501.73 309.695 1502.68 309.847 1503.77H307.165C306.96 1502.98 306.506 1502.27 305.801 1501.66C305.104 1501.04 304.165 1500.73 302.983 1500.73C301.938 1500.73 301.021 1501 300.233 1501.55C299.453 1502.08 298.843 1502.84 298.403 1503.83C297.972 1504.81 297.756 1505.95 297.756 1507.27C297.756 1508.62 297.968 1509.8 298.392 1510.8C298.824 1511.8 299.43 1512.57 300.21 1513.12C300.998 1513.68 301.922 1513.95 302.983 1513.95C303.68 1513.95 304.312 1513.83 304.881 1513.59C305.449 1513.35 305.93 1513 306.324 1512.55C306.718 1512.09 306.998 1511.55 307.165 1510.91H309.847C309.695 1511.94 309.32 1512.87 308.722 1513.69C308.131 1514.51 307.347 1515.16 306.369 1515.65C305.4 1516.12 304.271 1516.36 302.983 1516.36ZM321.358 1498.55V1500.82H312.312V1498.55H321.358ZM314.949 1494.36H317.631V1511C317.631 1511.76 317.741 1512.33 317.96 1512.7C318.188 1513.08 318.475 1513.33 318.824 1513.45C319.18 1513.58 319.555 1513.64 319.949 1513.64C320.244 1513.64 320.487 1513.62 320.676 1513.59C320.866 1513.55 321.017 1513.52 321.131 1513.5L321.676 1515.91C321.494 1515.98 321.241 1516.05 320.915 1516.11C320.589 1516.19 320.176 1516.23 319.676 1516.23C318.919 1516.23 318.176 1516.06 317.449 1515.74C316.729 1515.41 316.131 1514.92 315.653 1514.25C315.184 1513.58 314.949 1512.74 314.949 1511.73V1494.36ZM332.523 1516.36C330.841 1516.36 329.39 1515.99 328.17 1515.25C326.958 1514.5 326.023 1513.45 325.364 1512.11C324.712 1510.77 324.386 1509.2 324.386 1507.41C324.386 1505.62 324.712 1504.05 325.364 1502.68C326.023 1501.31 326.939 1500.24 328.114 1499.48C329.295 1498.7 330.674 1498.32 332.25 1498.32C333.159 1498.32 334.057 1498.47 334.943 1498.77C335.83 1499.08 336.636 1499.57 337.364 1500.25C338.091 1500.92 338.67 1501.82 339.102 1502.93C339.534 1504.05 339.75 1505.42 339.75 1507.05V1508.18H326.295V1505.86H337.023C337.023 1504.88 336.826 1504 336.432 1503.23C336.045 1502.45 335.492 1501.84 334.773 1501.4C334.061 1500.95 333.22 1500.73 332.25 1500.73C331.182 1500.73 330.258 1500.99 329.477 1501.52C328.705 1502.05 328.11 1502.73 327.693 1503.57C327.277 1504.41 327.068 1505.31 327.068 1506.27V1507.82C327.068 1509.14 327.295 1510.25 327.75 1511.17C328.212 1512.08 328.852 1512.77 329.67 1513.25C330.489 1513.72 331.439 1513.95 332.523 1513.95C333.227 1513.95 333.864 1513.86 334.432 1513.66C335.008 1513.45 335.504 1513.15 335.92 1512.75C336.337 1512.34 336.659 1511.83 336.886 1511.23L339.477 1511.95C339.205 1512.83 338.746 1513.61 338.102 1514.27C337.458 1514.93 336.663 1515.45 335.716 1515.82C334.769 1516.18 333.705 1516.36 332.523 1516.36ZM350.42 1516.36C348.966 1516.36 347.682 1516 346.568 1515.26C345.455 1514.52 344.583 1513.47 343.955 1512.12C343.326 1510.77 343.011 1509.17 343.011 1507.32C343.011 1505.48 343.326 1503.89 343.955 1502.55C344.583 1501.2 345.458 1500.16 346.58 1499.42C347.701 1498.69 348.996 1498.32 350.466 1498.32C351.602 1498.32 352.5 1498.51 353.159 1498.89C353.826 1499.26 354.333 1499.68 354.682 1500.16C355.038 1500.63 355.314 1501.02 355.511 1501.32H355.739V1492.73H358.42V1516H355.83V1513.32H355.511C355.314 1513.64 355.034 1514.04 354.67 1514.52C354.307 1515 353.788 1515.43 353.114 1515.81C352.439 1516.18 351.542 1516.36 350.42 1516.36ZM350.784 1513.95C351.86 1513.95 352.769 1513.67 353.511 1513.11C354.254 1512.55 354.818 1511.76 355.205 1510.76C355.591 1509.75 355.784 1508.59 355.784 1507.27C355.784 1505.97 355.595 1504.83 355.216 1503.85C354.837 1502.87 354.277 1502.1 353.534 1501.56C352.792 1501 351.875 1500.73 350.784 1500.73C349.648 1500.73 348.701 1501.02 347.943 1501.6C347.193 1502.18 346.629 1502.96 346.25 1503.95C345.879 1504.94 345.693 1506.05 345.693 1507.27C345.693 1508.52 345.883 1509.64 346.261 1510.66C346.648 1511.67 347.216 1512.47 347.966 1513.07C348.723 1513.66 349.663 1513.95 350.784 1513.95ZM391.795 1500H388.977C388.811 1499.19 388.519 1498.48 388.102 1497.86C387.693 1497.25 387.193 1496.73 386.602 1496.32C386.019 1495.89 385.371 1495.58 384.659 1495.36C383.947 1495.15 383.205 1495.05 382.432 1495.05C381.023 1495.05 379.746 1495.4 378.602 1496.11C377.466 1496.83 376.561 1497.88 375.886 1499.26C375.22 1500.65 374.886 1502.35 374.886 1504.36C374.886 1506.38 375.22 1508.08 375.886 1509.47C376.561 1510.85 377.466 1511.9 378.602 1512.61C379.746 1513.33 381.023 1513.68 382.432 1513.68C383.205 1513.68 383.947 1513.58 384.659 1513.36C385.371 1513.15 386.019 1512.84 386.602 1512.42C387.193 1512 387.693 1511.48 388.102 1510.86C388.519 1510.24 388.811 1509.53 388.977 1508.73H391.795C391.583 1509.92 391.197 1510.98 390.636 1511.92C390.076 1512.86 389.379 1513.66 388.545 1514.32C387.712 1514.97 386.777 1515.47 385.739 1515.81C384.708 1516.15 383.606 1516.32 382.432 1516.32C380.447 1516.32 378.682 1515.83 377.136 1514.86C375.591 1513.89 374.375 1512.52 373.489 1510.73C372.602 1508.94 372.159 1506.82 372.159 1504.36C372.159 1501.91 372.602 1499.79 373.489 1498C374.375 1496.21 375.591 1494.83 377.136 1493.86C378.682 1492.89 380.447 1492.41 382.432 1492.41C383.606 1492.41 384.708 1492.58 385.739 1492.92C386.777 1493.26 387.712 1493.76 388.545 1494.42C389.379 1495.07 390.076 1495.87 390.636 1496.81C391.197 1497.74 391.583 1498.8 391.795 1500ZM401.122 1516.41C400.016 1516.41 399.012 1516.2 398.111 1515.78C397.209 1515.36 396.493 1514.75 395.963 1513.95C395.433 1513.15 395.168 1512.18 395.168 1511.05C395.168 1510.05 395.365 1509.23 395.759 1508.61C396.152 1507.98 396.679 1507.49 397.338 1507.14C397.997 1506.78 398.724 1506.52 399.52 1506.34C400.323 1506.16 401.13 1506.02 401.94 1505.91C403.001 1505.77 403.861 1505.67 404.52 1505.6C405.187 1505.53 405.671 1505.4 405.974 1505.23C406.285 1505.05 406.44 1504.75 406.44 1504.32V1504.23C406.44 1503.11 406.134 1502.23 405.52 1501.61C404.914 1500.99 403.993 1500.68 402.759 1500.68C401.478 1500.68 400.474 1500.96 399.747 1501.52C399.02 1502.08 398.509 1502.68 398.213 1503.32L395.668 1502.41C396.122 1501.35 396.728 1500.52 397.486 1499.93C398.251 1499.33 399.084 1498.92 399.986 1498.68C400.895 1498.44 401.789 1498.32 402.668 1498.32C403.228 1498.32 403.872 1498.39 404.599 1498.52C405.334 1498.65 406.043 1498.92 406.724 1499.33C407.414 1499.74 407.986 1500.36 408.44 1501.18C408.895 1502.01 409.122 1503.11 409.122 1504.5V1516H406.44V1513.64H406.304C406.122 1514.02 405.819 1514.42 405.395 1514.85C404.971 1515.28 404.406 1515.65 403.702 1515.95C402.997 1516.26 402.137 1516.41 401.122 1516.41ZM401.531 1514C402.592 1514 403.486 1513.79 404.213 1513.38C404.948 1512.96 405.501 1512.42 405.872 1511.76C406.251 1511.1 406.44 1510.41 406.44 1509.68V1507.23C406.327 1507.36 406.077 1507.49 405.69 1507.6C405.312 1507.71 404.872 1507.8 404.372 1507.89C403.88 1507.96 403.399 1508.03 402.929 1508.09C402.467 1508.14 402.092 1508.19 401.804 1508.23C401.107 1508.32 400.455 1508.47 399.849 1508.67C399.251 1508.87 398.766 1509.17 398.395 1509.57C398.031 1509.96 397.849 1510.5 397.849 1511.18C397.849 1512.11 398.194 1512.82 398.884 1513.3C399.58 1513.77 400.463 1514 401.531 1514ZM421.79 1498.55V1500.82H412.381V1498.55H421.79ZM415.199 1516V1496.14C415.199 1495.14 415.434 1494.3 415.903 1493.64C416.373 1492.97 416.983 1492.47 417.733 1492.14C418.483 1491.8 419.275 1491.64 420.108 1491.64C420.767 1491.64 421.305 1491.69 421.722 1491.8C422.138 1491.9 422.449 1492 422.653 1492.09L421.881 1494.41C421.744 1494.36 421.555 1494.31 421.312 1494.24C421.078 1494.17 420.767 1494.14 420.381 1494.14C419.494 1494.14 418.854 1494.36 418.46 1494.81C418.074 1495.25 417.881 1495.91 417.881 1496.77V1516H415.199ZM432.148 1516.36C430.466 1516.36 429.015 1515.99 427.795 1515.25C426.583 1514.5 425.648 1513.45 424.989 1512.11C424.337 1510.77 424.011 1509.2 424.011 1507.41C424.011 1505.62 424.337 1504.05 424.989 1502.68C425.648 1501.31 426.564 1500.24 427.739 1499.48C428.92 1498.7 430.299 1498.32 431.875 1498.32C432.784 1498.32 433.682 1498.47 434.568 1498.77C435.455 1499.08 436.261 1499.57 436.989 1500.25C437.716 1500.92 438.295 1501.82 438.727 1502.93C439.159 1504.05 439.375 1505.42 439.375 1507.05V1508.18H425.92V1505.86H436.648C436.648 1504.88 436.451 1504 436.057 1503.23C435.67 1502.45 435.117 1501.84 434.398 1501.4C433.686 1500.95 432.845 1500.73 431.875 1500.73C430.807 1500.73 429.883 1500.99 429.102 1501.52C428.33 1502.05 427.735 1502.73 427.318 1503.57C426.902 1504.41 426.693 1505.31 426.693 1506.27V1507.82C426.693 1509.14 426.92 1510.25 427.375 1511.17C427.837 1512.08 428.477 1512.77 429.295 1513.25C430.114 1513.72 431.064 1513.95 432.148 1513.95C432.852 1513.95 433.489 1513.86 434.057 1513.66C434.633 1513.45 435.129 1513.15 435.545 1512.75C435.962 1512.34 436.284 1511.83 436.511 1511.23L439.102 1511.95C438.83 1512.83 438.371 1513.61 437.727 1514.27C437.083 1514.93 436.288 1515.45 435.341 1515.82C434.394 1516.18 433.33 1516.36 432.148 1516.36ZM451.045 1498.55V1500.82H442V1498.55H451.045ZM444.636 1494.36H447.318V1511C447.318 1511.76 447.428 1512.33 447.648 1512.7C447.875 1513.08 448.163 1513.33 448.511 1513.45C448.867 1513.58 449.242 1513.64 449.636 1513.64C449.932 1513.64 450.174 1513.62 450.364 1513.59C450.553 1513.55 450.705 1513.52 450.818 1513.5L451.364 1515.91C451.182 1515.98 450.928 1516.05 450.602 1516.11C450.277 1516.19 449.864 1516.23 449.364 1516.23C448.606 1516.23 447.864 1516.06 447.136 1515.74C446.417 1515.41 445.818 1514.92 445.341 1514.25C444.871 1513.58 444.636 1512.74 444.636 1511.73V1494.36ZM462.21 1516.36C460.528 1516.36 459.078 1515.99 457.858 1515.25C456.646 1514.5 455.71 1513.45 455.051 1512.11C454.4 1510.77 454.074 1509.2 454.074 1507.41C454.074 1505.62 454.4 1504.05 455.051 1502.68C455.71 1501.31 456.627 1500.24 457.801 1499.48C458.983 1498.7 460.362 1498.32 461.938 1498.32C462.847 1498.32 463.744 1498.47 464.631 1498.77C465.517 1499.08 466.324 1499.57 467.051 1500.25C467.778 1500.92 468.358 1501.82 468.79 1502.93C469.222 1504.05 469.438 1505.42 469.438 1507.05V1508.18H455.983V1505.86H466.71C466.71 1504.88 466.513 1504 466.119 1503.23C465.733 1502.45 465.18 1501.84 464.46 1501.4C463.748 1500.95 462.907 1500.73 461.938 1500.73C460.869 1500.73 459.945 1500.99 459.165 1501.52C458.392 1502.05 457.797 1502.73 457.381 1503.57C456.964 1504.41 456.756 1505.31 456.756 1506.27V1507.82C456.756 1509.14 456.983 1510.25 457.438 1511.17C457.9 1512.08 458.54 1512.77 459.358 1513.25C460.176 1513.72 461.127 1513.95 462.21 1513.95C462.915 1513.95 463.551 1513.86 464.119 1513.66C464.695 1513.45 465.191 1513.15 465.608 1512.75C466.025 1512.34 466.347 1511.83 466.574 1511.23L469.165 1511.95C468.892 1512.83 468.434 1513.61 467.79 1514.27C467.146 1514.93 466.35 1515.45 465.403 1515.82C464.456 1516.18 463.392 1516.36 462.21 1516.36ZM473.517 1516V1498.55H476.108V1501.18H476.29C476.608 1500.32 477.184 1499.62 478.017 1499.08C478.85 1498.54 479.79 1498.27 480.835 1498.27C481.032 1498.27 481.278 1498.28 481.574 1498.28C481.869 1498.29 482.093 1498.3 482.244 1498.32V1501.05C482.153 1501.02 481.945 1500.99 481.619 1500.94C481.301 1500.89 480.964 1500.86 480.608 1500.86C479.759 1500.86 479.002 1501.04 478.335 1501.4C477.676 1501.75 477.153 1502.23 476.767 1502.85C476.388 1503.47 476.199 1504.17 476.199 1504.95V1516H473.517ZM485.423 1516V1498.55H488.105V1516H485.423ZM486.787 1495.64C486.264 1495.64 485.813 1495.46 485.435 1495.1C485.063 1494.75 484.878 1494.32 484.878 1493.82C484.878 1493.32 485.063 1492.89 485.435 1492.53C485.813 1492.18 486.264 1492 486.787 1492C487.31 1492 487.757 1492.18 488.128 1492.53C488.507 1492.89 488.696 1493.32 488.696 1493.82C488.696 1494.32 488.507 1494.75 488.128 1495.1C487.757 1495.46 487.31 1495.64 486.787 1495.64ZM498.153 1516.41C497.047 1516.41 496.044 1516.2 495.142 1515.78C494.241 1515.36 493.525 1514.75 492.994 1513.95C492.464 1513.15 492.199 1512.18 492.199 1511.05C492.199 1510.05 492.396 1509.23 492.79 1508.61C493.184 1507.98 493.71 1507.49 494.369 1507.14C495.028 1506.78 495.756 1506.52 496.551 1506.34C497.354 1506.16 498.161 1506.02 498.972 1505.91C500.032 1505.77 500.892 1505.67 501.551 1505.6C502.218 1505.53 502.703 1505.4 503.006 1505.23C503.316 1505.05 503.472 1504.75 503.472 1504.32V1504.23C503.472 1503.11 503.165 1502.23 502.551 1501.61C501.945 1500.99 501.025 1500.68 499.79 1500.68C498.509 1500.68 497.506 1500.96 496.778 1501.52C496.051 1502.08 495.54 1502.68 495.244 1503.32L492.699 1502.41C493.153 1501.35 493.759 1500.52 494.517 1499.93C495.282 1499.33 496.116 1498.92 497.017 1498.68C497.926 1498.44 498.82 1498.32 499.699 1498.32C500.259 1498.32 500.903 1498.39 501.631 1498.52C502.366 1498.65 503.074 1498.92 503.756 1499.33C504.445 1499.74 505.017 1500.36 505.472 1501.18C505.926 1502.01 506.153 1503.11 506.153 1504.5V1516H503.472V1513.64H503.335C503.153 1514.02 502.85 1514.42 502.426 1514.85C502.002 1515.28 501.438 1515.65 500.733 1515.95C500.028 1516.26 499.169 1516.41 498.153 1516.41ZM498.562 1514C499.623 1514 500.517 1513.79 501.244 1513.38C501.979 1512.96 502.532 1512.42 502.903 1511.76C503.282 1511.1 503.472 1510.41 503.472 1509.68V1507.23C503.358 1507.36 503.108 1507.49 502.722 1507.6C502.343 1507.71 501.903 1507.8 501.403 1507.89C500.911 1507.96 500.43 1508.03 499.96 1508.09C499.498 1508.14 499.123 1508.19 498.835 1508.23C498.138 1508.32 497.487 1508.47 496.881 1508.67C496.282 1508.87 495.797 1509.17 495.426 1509.57C495.063 1509.96 494.881 1510.5 494.881 1511.18C494.881 1512.11 495.225 1512.82 495.915 1513.3C496.612 1513.77 497.494 1514 498.562 1514Z" fill="black"/>
<path d="M684.818 1465.73H688.045L694.5 1476.59H694.773L701.227 1465.73H704.455L696.045 1479.41V1489H693.227V1479.41L684.818 1465.73ZM712.358 1489.36C710.782 1489.36 709.4 1488.99 708.21 1488.24C707.028 1487.49 706.104 1486.44 705.438 1485.09C704.778 1483.74 704.449 1482.17 704.449 1480.36C704.449 1478.55 704.778 1476.96 705.438 1475.6C706.104 1474.25 707.028 1473.19 708.21 1472.44C709.4 1471.69 710.782 1471.32 712.358 1471.32C713.934 1471.32 715.313 1471.69 716.494 1472.44C717.684 1473.19 718.608 1474.25 719.267 1475.6C719.934 1476.96 720.267 1478.55 720.267 1480.36C720.267 1482.17 719.934 1483.74 719.267 1485.09C718.608 1486.44 717.684 1487.49 716.494 1488.24C715.313 1488.99 713.934 1489.36 712.358 1489.36ZM712.358 1486.95C713.555 1486.95 714.54 1486.65 715.312 1486.03C716.085 1485.42 716.657 1484.61 717.028 1483.61C717.4 1482.61 717.585 1481.53 717.585 1480.36C717.585 1479.2 717.4 1478.11 717.028 1477.1C716.657 1476.09 716.085 1475.28 715.312 1474.66C714.54 1474.04 713.555 1473.73 712.358 1473.73C711.161 1473.73 710.176 1474.04 709.403 1474.66C708.631 1475.28 708.059 1476.09 707.688 1477.1C707.316 1478.11 707.131 1479.2 707.131 1480.36C707.131 1481.53 707.316 1482.61 707.688 1483.61C708.059 1484.61 708.631 1485.42 709.403 1486.03C710.176 1486.65 711.161 1486.95 712.358 1486.95ZM735.361 1481.86V1471.55H738.043V1489H735.361V1486.05H735.179C734.77 1486.93 734.134 1487.69 733.27 1488.31C732.406 1488.92 731.315 1489.23 729.997 1489.23C728.906 1489.23 727.937 1488.99 727.088 1488.51C726.24 1488.03 725.573 1487.3 725.088 1486.33C724.603 1485.35 724.361 1484.12 724.361 1482.64V1471.55H727.043V1482.45C727.043 1483.73 727.399 1484.74 728.111 1485.5C728.83 1486.26 729.747 1486.64 730.861 1486.64C731.527 1486.64 732.205 1486.47 732.895 1486.12C733.592 1485.78 734.175 1485.26 734.645 1484.56C735.122 1483.85 735.361 1482.95 735.361 1481.86Z" fill="black"/>
<path d="M684.818 1560.73H688.045L694.5 1571.59H694.773L701.227 1560.73H704.455L696.045 1574.41V1584H693.227V1574.41L684.818 1560.73ZM712.358 1584.36C710.782 1584.36 709.4 1583.99 708.21 1583.24C707.028 1582.49 706.104 1581.44 705.438 1580.09C704.778 1578.74 704.449 1577.17 704.449 1575.36C704.449 1573.55 704.778 1571.96 705.438 1570.6C706.104 1569.25 707.028 1568.19 708.21 1567.44C709.4 1566.69 710.782 1566.32 712.358 1566.32C713.934 1566.32 715.313 1566.69 716.494 1567.44C717.684 1568.19 718.608 1569.25 719.267 1570.6C719.934 1571.96 720.267 1573.55 720.267 1575.36C720.267 1577.17 719.934 1578.74 719.267 1580.09C718.608 1581.44 717.684 1582.49 716.494 1583.24C715.313 1583.99 713.934 1584.36 712.358 1584.36ZM712.358 1581.95C713.555 1581.95 714.54 1581.65 715.312 1581.03C716.085 1580.42 716.657 1579.61 717.028 1578.61C717.4 1577.61 717.585 1576.53 717.585 1575.36C717.585 1574.2 717.4 1573.11 717.028 1572.1C716.657 1571.09 716.085 1570.28 715.312 1569.66C714.54 1569.04 713.555 1568.73 712.358 1568.73C711.161 1568.73 710.176 1569.04 709.403 1569.66C708.631 1570.28 708.059 1571.09 707.688 1572.1C707.316 1573.11 707.131 1574.2 707.131 1575.36C707.131 1576.53 707.316 1577.61 707.688 1578.61C708.059 1579.61 708.631 1580.42 709.403 1581.03C710.176 1581.65 711.161 1581.95 712.358 1581.95ZM735.361 1576.86V1566.55H738.043V1584H735.361V1581.05H735.179C734.77 1581.93 734.134 1582.69 733.27 1583.31C732.406 1583.92 731.315 1584.23 729.997 1584.23C728.906 1584.23 727.937 1583.99 727.088 1583.51C726.24 1583.03 725.573 1582.3 725.088 1581.33C724.603 1580.35 724.361 1579.12 724.361 1577.64V1566.55H727.043V1577.45C727.043 1578.73 727.399 1579.74 728.111 1580.5C728.83 1581.26 729.747 1581.64 730.861 1581.64C731.527 1581.64 732.205 1581.47 732.895 1581.12C733.592 1580.78 734.175 1580.26 734.645 1579.56C735.122 1578.85 735.361 1577.95 735.361 1576.86ZM742.955 1584V1566.55H745.545V1569.18H745.727C746.045 1568.32 746.621 1567.62 747.455 1567.08C748.288 1566.54 749.227 1566.27 750.273 1566.27C750.47 1566.27 750.716 1566.28 751.011 1566.28C751.307 1566.29 751.53 1566.3 751.682 1566.32V1569.05C751.591 1569.02 751.383 1568.99 751.057 1568.94C750.739 1568.89 750.402 1568.86 750.045 1568.86C749.197 1568.86 748.439 1569.04 747.773 1569.4C747.114 1569.75 746.591 1570.23 746.205 1570.85C745.826 1571.47 745.636 1572.17 745.636 1572.95V1584H742.955ZM771.406 1584H764.224V1560.73H771.724C773.982 1560.73 775.914 1561.19 777.52 1562.12C779.126 1563.05 780.357 1564.38 781.213 1566.11C782.069 1567.84 782.497 1569.91 782.497 1572.32C782.497 1574.74 782.065 1576.83 781.202 1578.58C780.338 1580.32 779.08 1581.66 777.429 1582.6C775.777 1583.53 773.77 1584 771.406 1584ZM767.043 1581.5H771.224C773.149 1581.5 774.743 1581.13 776.009 1580.39C777.274 1579.64 778.217 1578.59 778.838 1577.22C779.459 1575.84 779.77 1574.21 779.77 1572.32C779.77 1570.44 779.463 1568.82 778.849 1567.47C778.236 1566.1 777.319 1565.06 776.099 1564.33C774.88 1563.59 773.361 1563.23 771.543 1563.23H767.043V1581.5ZM794.179 1584.36C792.497 1584.36 791.046 1583.99 789.827 1583.25C788.615 1582.5 787.679 1581.45 787.02 1580.11C786.368 1578.77 786.043 1577.2 786.043 1575.41C786.043 1573.62 786.368 1572.05 787.02 1570.68C787.679 1569.31 788.596 1568.24 789.77 1567.48C790.952 1566.7 792.33 1566.32 793.906 1566.32C794.815 1566.32 795.713 1566.47 796.599 1566.77C797.486 1567.08 798.293 1567.57 799.02 1568.25C799.747 1568.92 800.327 1569.82 800.759 1570.93C801.19 1572.05 801.406 1573.42 801.406 1575.05V1576.18H787.952V1573.86H798.679C798.679 1572.88 798.482 1572 798.088 1571.23C797.702 1570.45 797.149 1569.84 796.429 1569.4C795.717 1568.95 794.876 1568.73 793.906 1568.73C792.838 1568.73 791.914 1568.99 791.134 1569.52C790.361 1570.05 789.766 1570.73 789.349 1571.57C788.933 1572.41 788.724 1573.31 788.724 1574.27V1575.82C788.724 1577.14 788.952 1578.25 789.406 1579.17C789.868 1580.08 790.509 1580.77 791.327 1581.25C792.145 1581.72 793.096 1581.95 794.179 1581.95C794.884 1581.95 795.52 1581.86 796.088 1581.66C796.664 1581.45 797.16 1581.15 797.577 1580.75C797.993 1580.34 798.315 1579.83 798.543 1579.23L801.134 1579.95C800.861 1580.83 800.402 1581.61 799.759 1582.27C799.115 1582.93 798.319 1583.45 797.372 1583.82C796.425 1584.18 795.361 1584.36 794.179 1584.36ZM817.849 1570.45L815.44 1571.14C815.289 1570.73 815.065 1570.34 814.77 1569.97C814.482 1569.58 814.088 1569.26 813.588 1569.01C813.088 1568.76 812.448 1568.64 811.668 1568.64C810.599 1568.64 809.709 1568.88 808.997 1569.38C808.293 1569.86 807.94 1570.48 807.94 1571.23C807.94 1571.89 808.183 1572.42 808.668 1572.81C809.152 1573.19 809.91 1573.52 810.94 1573.77L813.531 1574.41C815.092 1574.79 816.255 1575.37 817.02 1576.15C817.785 1576.92 818.168 1577.92 818.168 1579.14C818.168 1580.14 817.88 1581.03 817.304 1581.82C816.736 1582.61 815.94 1583.23 814.918 1583.68C813.895 1584.14 812.705 1584.36 811.349 1584.36C809.569 1584.36 808.096 1583.98 806.929 1583.2C805.762 1582.43 805.024 1581.3 804.713 1579.82L807.259 1579.18C807.501 1580.12 807.959 1580.83 808.634 1581.3C809.315 1581.77 810.205 1582 811.304 1582C812.554 1582 813.546 1581.73 814.281 1581.2C815.024 1580.67 815.395 1580.02 815.395 1579.27C815.395 1578.67 815.183 1578.16 814.759 1577.75C814.334 1577.33 813.683 1577.02 812.804 1576.82L809.895 1576.14C808.296 1575.76 807.122 1575.17 806.372 1574.38C805.63 1573.57 805.259 1572.57 805.259 1571.36C805.259 1570.38 805.535 1569.51 806.088 1568.75C806.649 1567.99 807.41 1567.4 808.372 1566.97C809.342 1566.53 810.44 1566.32 811.668 1566.32C813.395 1566.32 814.751 1566.7 815.736 1567.45C816.728 1568.21 817.433 1569.21 817.849 1570.45ZM829.795 1566.55V1568.82H820.75V1566.55H829.795ZM823.386 1562.36H826.068V1579C826.068 1579.76 826.178 1580.33 826.398 1580.7C826.625 1581.08 826.913 1581.33 827.261 1581.45C827.617 1581.58 827.992 1581.64 828.386 1581.64C828.682 1581.64 828.924 1581.62 829.114 1581.59C829.303 1581.55 829.455 1581.52 829.568 1581.5L830.114 1583.91C829.932 1583.98 829.678 1584.05 829.352 1584.11C829.027 1584.19 828.614 1584.23 828.114 1584.23C827.356 1584.23 826.614 1584.06 825.886 1583.74C825.167 1583.41 824.568 1582.92 824.091 1582.25C823.621 1581.58 823.386 1580.74 823.386 1579.73V1562.36ZM833.83 1584V1566.55H836.511V1584H833.83ZM835.193 1563.64C834.67 1563.64 834.22 1563.46 833.841 1563.1C833.47 1562.75 833.284 1562.32 833.284 1561.82C833.284 1561.32 833.47 1560.89 833.841 1560.53C834.22 1560.18 834.67 1560 835.193 1560C835.716 1560 836.163 1560.18 836.534 1560.53C836.913 1560.89 837.102 1561.32 837.102 1561.82C837.102 1562.32 836.913 1562.75 836.534 1563.1C836.163 1563.46 835.716 1563.64 835.193 1563.64ZM844.105 1573.5V1584H841.423V1566.55H844.014V1569.27H844.241C844.651 1568.39 845.272 1567.67 846.105 1567.14C846.938 1566.59 848.014 1566.32 849.332 1566.32C850.514 1566.32 851.548 1566.56 852.435 1567.05C853.321 1567.52 854.01 1568.25 854.503 1569.23C854.995 1570.2 855.241 1571.42 855.241 1572.91V1584H852.56V1573.09C852.56 1571.72 852.204 1570.65 851.491 1569.89C850.779 1569.11 849.802 1568.73 848.56 1568.73C847.704 1568.73 846.938 1568.91 846.264 1569.28C845.598 1569.66 845.071 1570.2 844.685 1570.91C844.298 1571.62 844.105 1572.48 844.105 1573.5ZM865.278 1584.41C864.172 1584.41 863.169 1584.2 862.267 1583.78C861.366 1583.36 860.65 1582.75 860.119 1581.95C859.589 1581.15 859.324 1580.18 859.324 1579.05C859.324 1578.05 859.521 1577.23 859.915 1576.61C860.309 1575.98 860.835 1575.49 861.494 1575.14C862.153 1574.78 862.881 1574.52 863.676 1574.34C864.479 1574.16 865.286 1574.02 866.097 1573.91C867.157 1573.77 868.017 1573.67 868.676 1573.6C869.343 1573.53 869.828 1573.4 870.131 1573.23C870.441 1573.05 870.597 1572.75 870.597 1572.32V1572.23C870.597 1571.11 870.29 1570.23 869.676 1569.61C869.07 1568.99 868.15 1568.68 866.915 1568.68C865.634 1568.68 864.631 1568.96 863.903 1569.52C863.176 1570.08 862.665 1570.68 862.369 1571.32L859.824 1570.41C860.278 1569.35 860.884 1568.52 861.642 1567.93C862.407 1567.33 863.241 1566.92 864.142 1566.68C865.051 1566.44 865.945 1566.32 866.824 1566.32C867.384 1566.32 868.028 1566.39 868.756 1566.52C869.491 1566.65 870.199 1566.92 870.881 1567.33C871.57 1567.74 872.142 1568.36 872.597 1569.18C873.051 1570.01 873.278 1571.11 873.278 1572.5V1584H870.597V1581.64H870.46C870.278 1582.02 869.975 1582.42 869.551 1582.85C869.127 1583.28 868.563 1583.65 867.858 1583.95C867.153 1584.26 866.294 1584.41 865.278 1584.41ZM865.688 1582C866.748 1582 867.642 1581.79 868.369 1581.38C869.104 1580.96 869.657 1580.42 870.028 1579.76C870.407 1579.1 870.597 1578.41 870.597 1577.68V1575.23C870.483 1575.36 870.233 1575.49 869.847 1575.6C869.468 1575.71 869.028 1575.8 868.528 1575.89C868.036 1575.96 867.555 1576.03 867.085 1576.09C866.623 1576.14 866.248 1576.19 865.96 1576.23C865.263 1576.32 864.612 1576.47 864.006 1576.67C863.407 1576.87 862.922 1577.17 862.551 1577.57C862.188 1577.96 862.006 1578.5 862.006 1579.18C862.006 1580.11 862.35 1580.82 863.04 1581.3C863.737 1581.77 864.619 1582 865.688 1582ZM885.764 1566.55V1568.82H876.719V1566.55H885.764ZM879.355 1562.36H882.037V1579C882.037 1579.76 882.147 1580.33 882.366 1580.7C882.594 1581.08 882.882 1581.33 883.23 1581.45C883.586 1581.58 883.961 1581.64 884.355 1581.64C884.651 1581.64 884.893 1581.62 885.082 1581.59C885.272 1581.55 885.423 1581.52 885.537 1581.5L886.082 1583.91C885.901 1583.98 885.647 1584.05 885.321 1584.11C884.995 1584.19 884.582 1584.23 884.082 1584.23C883.325 1584.23 882.582 1584.06 881.855 1583.74C881.135 1583.41 880.537 1582.92 880.06 1582.25C879.59 1581.58 879.355 1580.74 879.355 1579.73V1562.36ZM889.798 1584V1566.55H892.48V1584H889.798ZM891.162 1563.64C890.639 1563.64 890.188 1563.46 889.81 1563.1C889.438 1562.75 889.253 1562.32 889.253 1561.82C889.253 1561.32 889.438 1560.89 889.81 1560.53C890.188 1560.18 890.639 1560 891.162 1560C891.685 1560 892.132 1560.18 892.503 1560.53C892.882 1560.89 893.071 1561.32 893.071 1561.82C893.071 1562.32 892.882 1562.75 892.503 1563.1C892.132 1563.46 891.685 1563.64 891.162 1563.64ZM904.483 1584.36C902.907 1584.36 901.525 1583.99 900.335 1583.24C899.153 1582.49 898.229 1581.44 897.562 1580.09C896.903 1578.74 896.574 1577.17 896.574 1575.36C896.574 1573.55 896.903 1571.96 897.562 1570.6C898.229 1569.25 899.153 1568.19 900.335 1567.44C901.525 1566.69 902.907 1566.32 904.483 1566.32C906.059 1566.32 907.438 1566.69 908.619 1567.44C909.809 1568.19 910.733 1569.25 911.392 1570.6C912.059 1571.96 912.392 1573.55 912.392 1575.36C912.392 1577.17 912.059 1578.74 911.392 1580.09C910.733 1581.44 909.809 1582.49 908.619 1583.24C907.438 1583.99 906.059 1584.36 904.483 1584.36ZM904.483 1581.95C905.68 1581.95 906.665 1581.65 907.438 1581.03C908.21 1580.42 908.782 1579.61 909.153 1578.61C909.525 1577.61 909.71 1576.53 909.71 1575.36C909.71 1574.2 909.525 1573.11 909.153 1572.1C908.782 1571.09 908.21 1570.28 907.438 1569.66C906.665 1569.04 905.68 1568.73 904.483 1568.73C903.286 1568.73 902.301 1569.04 901.528 1569.66C900.756 1570.28 900.184 1571.09 899.812 1572.1C899.441 1573.11 899.256 1574.2 899.256 1575.36C899.256 1576.53 899.441 1577.61 899.812 1578.61C900.184 1579.61 900.756 1580.42 901.528 1581.03C902.301 1581.65 903.286 1581.95 904.483 1581.95ZM919.168 1573.5V1584H916.486V1566.55H919.077V1569.27H919.304C919.713 1568.39 920.334 1567.67 921.168 1567.14C922.001 1566.59 923.077 1566.32 924.395 1566.32C925.577 1566.32 926.611 1566.56 927.497 1567.05C928.384 1567.52 929.073 1568.25 929.565 1569.23C930.058 1570.2 930.304 1571.42 930.304 1572.91V1584H927.622V1573.09C927.622 1571.72 927.266 1570.65 926.554 1569.89C925.842 1569.11 924.865 1568.73 923.622 1568.73C922.766 1568.73 922.001 1568.91 921.327 1569.28C920.66 1569.66 920.134 1570.2 919.747 1570.91C919.361 1571.62 919.168 1572.48 919.168 1573.5Z" fill="black"/>
<path d="M210.545 1553.55C210.409 1552.39 209.856 1551.5 208.886 1550.86C207.917 1550.23 206.727 1549.91 205.318 1549.91C204.288 1549.91 203.386 1550.08 202.614 1550.41C201.848 1550.74 201.25 1551.2 200.818 1551.78C200.394 1552.37 200.182 1553.03 200.182 1553.77C200.182 1554.39 200.33 1554.93 200.625 1555.38C200.928 1555.81 201.314 1556.18 201.784 1556.48C202.254 1556.77 202.746 1557 203.261 1557.19C203.777 1557.37 204.25 1557.52 204.682 1557.64L207.045 1558.27C207.652 1558.43 208.326 1558.65 209.068 1558.93C209.818 1559.21 210.534 1559.59 211.216 1560.08C211.905 1560.56 212.473 1561.17 212.92 1561.92C213.367 1562.67 213.591 1563.59 213.591 1564.68C213.591 1565.94 213.261 1567.08 212.602 1568.09C211.951 1569.11 210.996 1569.91 209.739 1570.51C208.489 1571.11 206.97 1571.41 205.182 1571.41C203.515 1571.41 202.072 1571.14 200.852 1570.6C199.64 1570.06 198.686 1569.31 197.989 1568.35C197.299 1567.39 196.909 1566.27 196.818 1565H199.727C199.803 1565.88 200.098 1566.61 200.614 1567.18C201.136 1567.75 201.795 1568.17 202.591 1568.45C203.394 1568.73 204.258 1568.86 205.182 1568.86C206.258 1568.86 207.223 1568.69 208.08 1568.34C208.936 1567.98 209.614 1567.49 210.114 1566.86C210.614 1566.23 210.864 1565.48 210.864 1564.64C210.864 1563.86 210.648 1563.23 210.216 1562.75C209.784 1562.27 209.216 1561.87 208.511 1561.57C207.807 1561.27 207.045 1561 206.227 1560.77L203.364 1559.95C201.545 1559.43 200.106 1558.69 199.045 1557.72C197.985 1556.75 197.455 1555.48 197.455 1553.91C197.455 1552.61 197.807 1551.47 198.511 1550.5C199.223 1549.52 200.178 1548.77 201.375 1548.23C202.58 1547.68 203.924 1547.41 205.409 1547.41C206.909 1547.41 208.242 1547.68 209.409 1548.22C210.576 1548.75 211.5 1549.47 212.182 1550.4C212.871 1551.32 213.235 1552.37 213.273 1553.55H210.545ZM217.861 1571V1553.55H220.543V1571H217.861ZM219.224 1550.64C218.702 1550.64 218.251 1550.46 217.872 1550.1C217.501 1549.75 217.315 1549.32 217.315 1548.82C217.315 1548.32 217.501 1547.89 217.872 1547.53C218.251 1547.18 218.702 1547 219.224 1547C219.747 1547 220.194 1547.18 220.565 1547.53C220.944 1547.89 221.134 1548.32 221.134 1548.82C221.134 1549.32 220.944 1549.75 220.565 1550.1C220.194 1550.46 219.747 1550.64 219.224 1550.64ZM228.136 1560.5V1571H225.455V1553.55H228.045V1556.27H228.273C228.682 1555.39 229.303 1554.67 230.136 1554.14C230.97 1553.59 232.045 1553.32 233.364 1553.32C234.545 1553.32 235.58 1553.56 236.466 1554.05C237.352 1554.52 238.042 1555.25 238.534 1556.23C239.027 1557.2 239.273 1558.42 239.273 1559.91V1571H236.591V1560.09C236.591 1558.72 236.235 1557.65 235.523 1556.89C234.811 1556.11 233.833 1555.73 232.591 1555.73C231.735 1555.73 230.97 1555.91 230.295 1556.28C229.629 1556.66 229.102 1557.2 228.716 1557.91C228.33 1558.62 228.136 1559.48 228.136 1560.5ZM251.219 1577.91C249.923 1577.91 248.81 1577.74 247.878 1577.41C246.946 1577.08 246.17 1576.65 245.548 1576.11C244.935 1575.58 244.446 1575.02 244.082 1574.41L246.219 1572.91C246.461 1573.23 246.768 1573.59 247.139 1574C247.51 1574.42 248.018 1574.78 248.662 1575.08C249.313 1575.39 250.166 1575.55 251.219 1575.55C252.628 1575.55 253.791 1575.2 254.707 1574.52C255.624 1573.84 256.082 1572.77 256.082 1571.32V1567.77H255.855C255.658 1568.09 255.378 1568.48 255.014 1568.95C254.658 1569.42 254.143 1569.83 253.469 1570.19C252.802 1570.55 251.901 1570.73 250.764 1570.73C249.355 1570.73 248.09 1570.39 246.969 1569.73C245.855 1569.06 244.973 1568.09 244.321 1566.82C243.677 1565.55 243.355 1564 243.355 1562.18C243.355 1560.39 243.67 1558.84 244.298 1557.51C244.927 1556.18 245.802 1555.15 246.923 1554.42C248.045 1553.69 249.34 1553.32 250.81 1553.32C251.946 1553.32 252.848 1553.51 253.514 1553.89C254.188 1554.26 254.704 1554.68 255.06 1555.16C255.423 1555.63 255.704 1556.02 255.901 1556.32H256.173V1553.55H258.764V1571.5C258.764 1573 258.423 1574.22 257.741 1575.16C257.067 1576.11 256.158 1576.8 255.014 1577.24C253.878 1577.69 252.613 1577.91 251.219 1577.91ZM251.128 1568.32C252.204 1568.32 253.113 1568.07 253.855 1567.58C254.598 1567.09 255.162 1566.38 255.548 1565.45C255.935 1564.53 256.128 1563.42 256.128 1562.14C256.128 1560.88 255.938 1559.77 255.56 1558.81C255.181 1557.84 254.62 1557.09 253.878 1556.55C253.135 1556 252.219 1555.73 251.128 1555.73C249.991 1555.73 249.045 1556.02 248.287 1556.59C247.537 1557.17 246.973 1557.94 246.594 1558.91C246.223 1559.88 246.037 1560.95 246.037 1562.14C246.037 1563.35 246.226 1564.42 246.605 1565.35C246.991 1566.28 247.56 1567 248.31 1567.53C249.067 1568.06 250.007 1568.32 251.128 1568.32ZM266.355 1547.73V1571H263.673V1547.73H266.355ZM278.585 1571.36C276.903 1571.36 275.453 1570.99 274.233 1570.25C273.021 1569.5 272.085 1568.45 271.426 1567.11C270.775 1565.77 270.449 1564.2 270.449 1562.41C270.449 1560.62 270.775 1559.05 271.426 1557.68C272.085 1556.31 273.002 1555.24 274.176 1554.48C275.358 1553.7 276.737 1553.32 278.312 1553.32C279.222 1553.32 280.119 1553.47 281.006 1553.77C281.892 1554.08 282.699 1554.57 283.426 1555.25C284.153 1555.92 284.733 1556.82 285.165 1557.93C285.597 1559.05 285.812 1560.42 285.812 1562.05V1563.18H272.358V1560.86H283.085C283.085 1559.88 282.888 1559 282.494 1558.23C282.108 1557.45 281.555 1556.84 280.835 1556.4C280.123 1555.95 279.282 1555.73 278.312 1555.73C277.244 1555.73 276.32 1555.99 275.54 1556.52C274.767 1557.05 274.172 1557.73 273.756 1558.57C273.339 1559.41 273.131 1560.31 273.131 1561.27V1562.82C273.131 1564.14 273.358 1565.25 273.812 1566.17C274.275 1567.08 274.915 1567.77 275.733 1568.25C276.551 1568.72 277.502 1568.95 278.585 1568.95C279.29 1568.95 279.926 1568.86 280.494 1568.66C281.07 1568.45 281.566 1568.15 281.983 1567.75C282.4 1567.34 282.722 1566.83 282.949 1566.23L285.54 1566.95C285.267 1567.83 284.809 1568.61 284.165 1569.27C283.521 1569.93 282.725 1570.45 281.778 1570.82C280.831 1571.18 279.767 1571.36 278.585 1571.36ZM317.983 1555H315.165C314.998 1554.19 314.706 1553.48 314.29 1552.86C313.881 1552.25 313.381 1551.73 312.79 1551.32C312.206 1550.89 311.559 1550.58 310.847 1550.36C310.134 1550.15 309.392 1550.05 308.619 1550.05C307.21 1550.05 305.934 1550.4 304.79 1551.11C303.653 1551.83 302.748 1552.88 302.074 1554.26C301.407 1555.65 301.074 1557.35 301.074 1559.36C301.074 1561.38 301.407 1563.08 302.074 1564.47C302.748 1565.85 303.653 1566.9 304.79 1567.61C305.934 1568.33 307.21 1568.68 308.619 1568.68C309.392 1568.68 310.134 1568.58 310.847 1568.36C311.559 1568.15 312.206 1567.84 312.79 1567.42C313.381 1567 313.881 1566.48 314.29 1565.86C314.706 1565.24 314.998 1564.53 315.165 1563.73H317.983C317.771 1564.92 317.384 1565.98 316.824 1566.92C316.263 1567.86 315.566 1568.66 314.733 1569.32C313.9 1569.97 312.964 1570.47 311.926 1570.81C310.896 1571.15 309.794 1571.32 308.619 1571.32C306.634 1571.32 304.869 1570.83 303.324 1569.86C301.778 1568.89 300.563 1567.52 299.676 1565.73C298.79 1563.94 298.347 1561.82 298.347 1559.36C298.347 1556.91 298.79 1554.79 299.676 1553C300.563 1551.21 301.778 1549.83 303.324 1548.86C304.869 1547.89 306.634 1547.41 308.619 1547.41C309.794 1547.41 310.896 1547.58 311.926 1547.92C312.964 1548.26 313.9 1548.76 314.733 1549.42C315.566 1550.07 316.263 1550.87 316.824 1551.81C317.384 1552.74 317.771 1553.8 317.983 1555ZM327.31 1571.41C326.204 1571.41 325.2 1571.2 324.298 1570.78C323.397 1570.36 322.681 1569.75 322.151 1568.95C321.62 1568.15 321.355 1567.18 321.355 1566.05C321.355 1565.05 321.552 1564.23 321.946 1563.61C322.34 1562.98 322.866 1562.49 323.526 1562.14C324.185 1561.78 324.912 1561.52 325.707 1561.34C326.51 1561.16 327.317 1561.02 328.128 1560.91C329.188 1560.77 330.048 1560.67 330.707 1560.6C331.374 1560.53 331.859 1560.4 332.162 1560.23C332.473 1560.05 332.628 1559.75 332.628 1559.32V1559.23C332.628 1558.11 332.321 1557.23 331.707 1556.61C331.101 1555.99 330.181 1555.68 328.946 1555.68C327.666 1555.68 326.662 1555.96 325.935 1556.52C325.207 1557.08 324.696 1557.68 324.401 1558.32L321.855 1557.41C322.31 1556.35 322.916 1555.52 323.673 1554.93C324.438 1554.33 325.272 1553.92 326.173 1553.68C327.082 1553.44 327.976 1553.32 328.855 1553.32C329.416 1553.32 330.06 1553.39 330.787 1553.52C331.522 1553.65 332.23 1553.92 332.912 1554.33C333.601 1554.74 334.173 1555.36 334.628 1556.18C335.082 1557.01 335.31 1558.11 335.31 1559.5V1571H332.628V1568.64H332.491C332.31 1569.02 332.007 1569.42 331.582 1569.85C331.158 1570.28 330.594 1570.65 329.889 1570.95C329.185 1571.26 328.325 1571.41 327.31 1571.41ZM327.719 1569C328.779 1569 329.673 1568.79 330.401 1568.38C331.135 1567.96 331.688 1567.42 332.06 1566.76C332.438 1566.1 332.628 1565.41 332.628 1564.68V1562.23C332.514 1562.36 332.264 1562.49 331.878 1562.6C331.499 1562.71 331.06 1562.8 330.56 1562.89C330.067 1562.96 329.586 1563.03 329.116 1563.09C328.654 1563.14 328.279 1563.19 327.991 1563.23C327.295 1563.32 326.643 1563.47 326.037 1563.67C325.438 1563.87 324.954 1564.17 324.582 1564.57C324.219 1564.96 324.037 1565.5 324.037 1566.18C324.037 1567.11 324.382 1567.82 325.071 1568.3C325.768 1568.77 326.651 1569 327.719 1569ZM347.977 1553.55V1555.82H338.568V1553.55H347.977ZM341.386 1571V1551.14C341.386 1550.14 341.621 1549.3 342.091 1548.64C342.561 1547.97 343.17 1547.47 343.92 1547.14C344.67 1546.8 345.462 1546.64 346.295 1546.64C346.955 1546.64 347.492 1546.69 347.909 1546.8C348.326 1546.9 348.636 1547 348.841 1547.09L348.068 1549.41C347.932 1549.36 347.742 1549.31 347.5 1549.24C347.265 1549.17 346.955 1549.14 346.568 1549.14C345.682 1549.14 345.042 1549.36 344.648 1549.81C344.261 1550.25 344.068 1550.91 344.068 1551.77V1571H341.386ZM358.335 1571.36C356.653 1571.36 355.203 1570.99 353.983 1570.25C352.771 1569.5 351.835 1568.45 351.176 1567.11C350.525 1565.77 350.199 1564.2 350.199 1562.41C350.199 1560.62 350.525 1559.05 351.176 1557.68C351.835 1556.31 352.752 1555.24 353.926 1554.48C355.108 1553.7 356.487 1553.32 358.062 1553.32C358.972 1553.32 359.869 1553.47 360.756 1553.77C361.642 1554.08 362.449 1554.57 363.176 1555.25C363.903 1555.92 364.483 1556.82 364.915 1557.93C365.347 1559.05 365.562 1560.42 365.562 1562.05V1563.18H352.108V1560.86H362.835C362.835 1559.88 362.638 1559 362.244 1558.23C361.858 1557.45 361.305 1556.84 360.585 1556.4C359.873 1555.95 359.032 1555.73 358.062 1555.73C356.994 1555.73 356.07 1555.99 355.29 1556.52C354.517 1557.05 353.922 1557.73 353.506 1558.57C353.089 1559.41 352.881 1560.31 352.881 1561.27V1562.82C352.881 1564.14 353.108 1565.25 353.562 1566.17C354.025 1567.08 354.665 1567.77 355.483 1568.25C356.301 1568.72 357.252 1568.95 358.335 1568.95C359.04 1568.95 359.676 1568.86 360.244 1568.66C360.82 1568.45 361.316 1568.15 361.733 1567.75C362.15 1567.34 362.472 1566.83 362.699 1566.23L365.29 1566.95C365.017 1567.83 364.559 1568.61 363.915 1569.27C363.271 1569.93 362.475 1570.45 361.528 1570.82C360.581 1571.18 359.517 1571.36 358.335 1571.36ZM377.233 1553.55V1555.82H368.188V1553.55H377.233ZM370.824 1549.36H373.506V1566C373.506 1566.76 373.616 1567.33 373.835 1567.7C374.063 1568.08 374.35 1568.33 374.699 1568.45C375.055 1568.58 375.43 1568.64 375.824 1568.64C376.119 1568.64 376.362 1568.62 376.551 1568.59C376.741 1568.55 376.892 1568.52 377.006 1568.5L377.551 1570.91C377.369 1570.98 377.116 1571.05 376.79 1571.11C376.464 1571.19 376.051 1571.23 375.551 1571.23C374.794 1571.23 374.051 1571.06 373.324 1570.74C372.604 1570.41 372.006 1569.92 371.528 1569.25C371.059 1568.58 370.824 1567.74 370.824 1566.73V1549.36ZM388.398 1571.36C386.716 1571.36 385.265 1570.99 384.045 1570.25C382.833 1569.5 381.898 1568.45 381.239 1567.11C380.587 1565.77 380.261 1564.2 380.261 1562.41C380.261 1560.62 380.587 1559.05 381.239 1557.68C381.898 1556.31 382.814 1555.24 383.989 1554.48C385.17 1553.7 386.549 1553.32 388.125 1553.32C389.034 1553.32 389.932 1553.47 390.818 1553.77C391.705 1554.08 392.511 1554.57 393.239 1555.25C393.966 1555.92 394.545 1556.82 394.977 1557.93C395.409 1559.05 395.625 1560.42 395.625 1562.05V1563.18H382.17V1560.86H392.898C392.898 1559.88 392.701 1559 392.307 1558.23C391.92 1557.45 391.367 1556.84 390.648 1556.4C389.936 1555.95 389.095 1555.73 388.125 1555.73C387.057 1555.73 386.133 1555.99 385.352 1556.52C384.58 1557.05 383.985 1557.73 383.568 1558.57C383.152 1559.41 382.943 1560.31 382.943 1561.27V1562.82C382.943 1564.14 383.17 1565.25 383.625 1566.17C384.087 1567.08 384.727 1567.77 385.545 1568.25C386.364 1568.72 387.314 1568.95 388.398 1568.95C389.102 1568.95 389.739 1568.86 390.307 1568.66C390.883 1568.45 391.379 1568.15 391.795 1567.75C392.212 1567.34 392.534 1566.83 392.761 1566.23L395.352 1566.95C395.08 1567.83 394.621 1568.61 393.977 1569.27C393.333 1569.93 392.538 1570.45 391.591 1570.82C390.644 1571.18 389.58 1571.36 388.398 1571.36ZM399.705 1571V1553.55H402.295V1556.18H402.477C402.795 1555.32 403.371 1554.62 404.205 1554.08C405.038 1553.54 405.977 1553.27 407.023 1553.27C407.22 1553.27 407.466 1553.28 407.761 1553.28C408.057 1553.29 408.28 1553.3 408.432 1553.32V1556.05C408.341 1556.02 408.133 1555.99 407.807 1555.94C407.489 1555.89 407.152 1555.86 406.795 1555.86C405.947 1555.86 405.189 1556.04 404.523 1556.4C403.864 1556.75 403.341 1557.23 402.955 1557.85C402.576 1558.47 402.386 1559.17 402.386 1559.95V1571H399.705ZM411.611 1571V1553.55H414.293V1571H411.611ZM412.974 1550.64C412.452 1550.64 412.001 1550.46 411.622 1550.1C411.251 1549.75 411.065 1549.32 411.065 1548.82C411.065 1548.32 411.251 1547.89 411.622 1547.53C412.001 1547.18 412.452 1547 412.974 1547C413.497 1547 413.944 1547.18 414.315 1547.53C414.694 1547.89 414.884 1548.32 414.884 1548.82C414.884 1549.32 414.694 1549.75 414.315 1550.1C413.944 1550.46 413.497 1550.64 412.974 1550.64ZM424.341 1571.41C423.235 1571.41 422.231 1571.2 421.33 1570.78C420.428 1570.36 419.712 1569.75 419.182 1568.95C418.652 1568.15 418.386 1567.18 418.386 1566.05C418.386 1565.05 418.583 1564.23 418.977 1563.61C419.371 1562.98 419.898 1562.49 420.557 1562.14C421.216 1561.78 421.943 1561.52 422.739 1561.34C423.542 1561.16 424.348 1561.02 425.159 1560.91C426.22 1560.77 427.08 1560.67 427.739 1560.6C428.405 1560.53 428.89 1560.4 429.193 1560.23C429.504 1560.05 429.659 1559.75 429.659 1559.32V1559.23C429.659 1558.11 429.352 1557.23 428.739 1556.61C428.133 1555.99 427.212 1555.68 425.977 1555.68C424.697 1555.68 423.693 1555.96 422.966 1556.52C422.239 1557.08 421.727 1557.68 421.432 1558.32L418.886 1557.41C419.341 1556.35 419.947 1555.52 420.705 1554.93C421.47 1554.33 422.303 1553.92 423.205 1553.68C424.114 1553.44 425.008 1553.32 425.886 1553.32C426.447 1553.32 427.091 1553.39 427.818 1553.52C428.553 1553.65 429.261 1553.92 429.943 1554.33C430.633 1554.74 431.205 1555.36 431.659 1556.18C432.114 1557.01 432.341 1558.11 432.341 1559.5V1571H429.659V1568.64H429.523C429.341 1569.02 429.038 1569.42 428.614 1569.85C428.189 1570.28 427.625 1570.65 426.92 1570.95C426.216 1571.26 425.356 1571.41 424.341 1571.41ZM424.75 1569C425.811 1569 426.705 1568.79 427.432 1568.38C428.167 1567.96 428.72 1567.42 429.091 1566.76C429.47 1566.1 429.659 1565.41 429.659 1564.68V1562.23C429.545 1562.36 429.295 1562.49 428.909 1562.6C428.53 1562.71 428.091 1562.8 427.591 1562.89C427.098 1562.96 426.617 1563.03 426.148 1563.09C425.686 1563.14 425.311 1563.19 425.023 1563.23C424.326 1563.32 423.674 1563.47 423.068 1563.67C422.47 1563.87 421.985 1564.17 421.614 1564.57C421.25 1564.96 421.068 1565.5 421.068 1566.18C421.068 1567.11 421.413 1567.82 422.102 1568.3C422.799 1568.77 423.682 1569 424.75 1569Z" fill="black"/>
<path d="M119.023 1452V1428.73H123.943V1447.94H133.92V1452H119.023ZM145.043 1452.34C143.247 1452.34 141.702 1451.98 140.406 1451.25C139.118 1450.52 138.126 1449.48 137.429 1448.14C136.732 1446.79 136.384 1445.19 136.384 1443.35C136.384 1441.56 136.732 1439.98 137.429 1438.62C138.126 1437.27 139.107 1436.21 140.372 1435.45C141.645 1434.7 143.137 1434.32 144.849 1434.32C146.001 1434.32 147.073 1434.5 148.065 1434.88C149.065 1435.24 149.937 1435.79 150.679 1436.52C151.429 1437.26 152.012 1438.18 152.429 1439.3C152.846 1440.4 153.054 1441.7 153.054 1443.18V1444.51H138.315V1441.51H148.497C148.497 1440.81 148.346 1440.2 148.043 1439.66C147.74 1439.12 147.319 1438.7 146.781 1438.4C146.251 1438.09 145.634 1437.93 144.929 1437.93C144.194 1437.93 143.543 1438.1 142.974 1438.44C142.414 1438.78 141.974 1439.23 141.656 1439.8C141.338 1440.36 141.175 1440.98 141.168 1441.67V1444.52C141.168 1445.39 141.327 1446.13 141.645 1446.76C141.971 1447.39 142.429 1447.88 143.02 1448.22C143.611 1448.56 144.312 1448.73 145.122 1448.73C145.66 1448.73 146.152 1448.65 146.599 1448.5C147.046 1448.35 147.429 1448.12 147.747 1447.82C148.065 1447.52 148.308 1447.14 148.474 1446.7L152.952 1447C152.724 1448.08 152.259 1449.02 151.554 1449.82C150.857 1450.61 149.955 1451.23 148.849 1451.68C147.751 1452.12 146.482 1452.34 145.043 1452.34ZM164.077 1458.91C162.509 1458.91 161.164 1458.69 160.043 1458.26C158.929 1457.84 158.043 1457.26 157.384 1456.52C156.724 1455.79 156.296 1454.96 156.099 1454.05L160.577 1453.44C160.713 1453.79 160.929 1454.12 161.224 1454.42C161.52 1454.72 161.91 1454.97 162.395 1455.15C162.887 1455.34 163.486 1455.43 164.19 1455.43C165.243 1455.43 166.111 1455.17 166.793 1454.66C167.482 1454.15 167.827 1453.3 167.827 1452.1V1448.91H167.622C167.41 1449.39 167.092 1449.85 166.668 1450.28C166.243 1450.72 165.698 1451.07 165.031 1451.34C164.365 1451.61 163.569 1451.75 162.645 1451.75C161.334 1451.75 160.141 1451.45 159.065 1450.84C157.997 1450.23 157.145 1449.29 156.509 1448.03C155.88 1446.77 155.565 1445.17 155.565 1443.24C155.565 1441.26 155.887 1439.61 156.531 1438.28C157.175 1436.96 158.031 1435.97 159.099 1435.31C160.175 1434.65 161.353 1434.32 162.634 1434.32C163.611 1434.32 164.429 1434.48 165.088 1434.82C165.747 1435.14 166.277 1435.55 166.679 1436.05C167.088 1436.53 167.402 1437.01 167.622 1437.48H167.804V1434.55H172.611V1452.17C172.611 1453.66 172.247 1454.9 171.52 1455.9C170.793 1456.9 169.785 1457.65 168.497 1458.15C167.217 1458.66 165.743 1458.91 164.077 1458.91ZM164.179 1448.11C164.959 1448.11 165.618 1447.92 166.156 1447.53C166.702 1447.14 167.118 1446.58 167.406 1445.85C167.702 1445.12 167.849 1444.24 167.849 1443.22C167.849 1442.19 167.705 1441.31 167.418 1440.56C167.13 1439.8 166.713 1439.21 166.168 1438.8C165.622 1438.38 164.959 1438.17 164.179 1438.17C163.384 1438.17 162.713 1438.39 162.168 1438.82C161.622 1439.24 161.209 1439.83 160.929 1440.59C160.649 1441.35 160.509 1442.22 160.509 1443.22C160.509 1444.22 160.649 1445.09 160.929 1445.83C161.217 1446.56 161.63 1447.12 162.168 1447.52C162.713 1447.92 163.384 1448.11 164.179 1448.11ZM184.418 1452.34C182.622 1452.34 181.077 1451.98 179.781 1451.25C178.493 1450.52 177.501 1449.48 176.804 1448.14C176.107 1446.79 175.759 1445.19 175.759 1443.35C175.759 1441.56 176.107 1439.98 176.804 1438.62C177.501 1437.27 178.482 1436.21 179.747 1435.45C181.02 1434.7 182.512 1434.32 184.224 1434.32C185.376 1434.32 186.448 1434.5 187.44 1434.88C188.44 1435.24 189.312 1435.79 190.054 1436.52C190.804 1437.26 191.387 1438.18 191.804 1439.3C192.221 1440.4 192.429 1441.7 192.429 1443.18V1444.51H177.69V1441.51H187.872C187.872 1440.81 187.721 1440.2 187.418 1439.66C187.115 1439.12 186.694 1438.7 186.156 1438.4C185.626 1438.09 185.009 1437.93 184.304 1437.93C183.569 1437.93 182.918 1438.1 182.349 1438.44C181.789 1438.78 181.349 1439.23 181.031 1439.8C180.713 1440.36 180.55 1440.98 180.543 1441.67V1444.52C180.543 1445.39 180.702 1446.13 181.02 1446.76C181.346 1447.39 181.804 1447.88 182.395 1448.22C182.986 1448.56 183.687 1448.73 184.497 1448.73C185.035 1448.73 185.527 1448.65 185.974 1448.5C186.421 1448.35 186.804 1448.12 187.122 1447.82C187.44 1447.52 187.683 1447.14 187.849 1446.7L192.327 1447C192.099 1448.08 191.634 1449.02 190.929 1449.82C190.232 1450.61 189.33 1451.23 188.224 1451.68C187.126 1452.12 185.857 1452.34 184.418 1452.34ZM200.429 1441.91V1452H195.588V1434.55H200.202V1437.62H200.406C200.793 1436.61 201.44 1435.81 202.349 1435.22C203.259 1434.62 204.361 1434.32 205.656 1434.32C206.868 1434.32 207.925 1434.58 208.827 1435.11C209.728 1435.64 210.429 1436.4 210.929 1437.39C211.429 1438.36 211.679 1439.53 211.679 1440.89V1452H206.838V1441.75C206.846 1440.68 206.573 1439.85 206.02 1439.25C205.467 1438.64 204.705 1438.34 203.736 1438.34C203.084 1438.34 202.509 1438.48 202.009 1438.76C201.516 1439.04 201.13 1439.45 200.849 1439.99C200.577 1440.52 200.437 1441.16 200.429 1441.91ZM221.926 1452.28C220.6 1452.28 219.4 1451.94 218.324 1451.26C217.256 1450.57 216.407 1449.56 215.778 1448.23C215.157 1446.89 214.847 1445.24 214.847 1443.3C214.847 1441.3 215.169 1439.63 215.812 1438.31C216.456 1436.97 217.313 1435.98 218.381 1435.32C219.456 1434.65 220.634 1434.32 221.915 1434.32C222.892 1434.32 223.706 1434.48 224.358 1434.82C225.017 1435.14 225.547 1435.55 225.949 1436.05C226.358 1436.53 226.669 1437.01 226.881 1437.48H227.028V1428.73H231.858V1452H227.085V1449.2H226.881C226.653 1449.69 226.331 1450.17 225.915 1450.65C225.506 1451.12 224.972 1451.51 224.312 1451.82C223.661 1452.13 222.866 1452.28 221.926 1452.28ZM223.46 1448.43C224.241 1448.43 224.9 1448.22 225.438 1447.8C225.983 1447.36 226.4 1446.76 226.688 1445.99C226.983 1445.22 227.131 1444.31 227.131 1443.27C227.131 1442.23 226.987 1441.33 226.699 1440.57C226.411 1439.8 225.994 1439.21 225.449 1438.8C224.903 1438.38 224.241 1438.17 223.46 1438.17C222.665 1438.17 221.994 1438.39 221.449 1438.82C220.903 1439.25 220.491 1439.85 220.21 1440.61C219.93 1441.38 219.79 1442.27 219.79 1443.27C219.79 1444.29 219.93 1445.19 220.21 1445.97C220.498 1446.74 220.911 1447.34 221.449 1447.78C221.994 1448.22 222.665 1448.43 223.46 1448.43ZM250.361 1439.52L245.929 1439.8C245.853 1439.42 245.69 1439.08 245.44 1438.77C245.19 1438.46 244.861 1438.22 244.452 1438.03C244.05 1437.84 243.569 1437.75 243.009 1437.75C242.259 1437.75 241.626 1437.91 241.111 1438.23C240.596 1438.54 240.338 1438.95 240.338 1439.48C240.338 1439.89 240.505 1440.25 240.838 1440.53C241.171 1440.82 241.743 1441.05 242.554 1441.23L245.713 1441.86C247.41 1442.21 248.675 1442.77 249.509 1443.55C250.342 1444.32 250.759 1445.33 250.759 1446.59C250.759 1447.73 250.421 1448.74 249.747 1449.6C249.08 1450.47 248.164 1451.14 246.997 1451.62C245.838 1452.1 244.501 1452.34 242.986 1452.34C240.675 1452.34 238.834 1451.86 237.463 1450.9C236.099 1449.93 235.3 1448.61 235.065 1446.94L239.827 1446.69C239.971 1447.4 240.319 1447.94 240.872 1448.31C241.425 1448.67 242.134 1448.85 242.997 1448.85C243.846 1448.85 244.527 1448.69 245.043 1448.36C245.565 1448.03 245.83 1447.6 245.838 1447.08C245.83 1446.64 245.645 1446.28 245.281 1446C244.918 1445.71 244.357 1445.49 243.599 1445.34L240.577 1444.74C238.872 1444.4 237.603 1443.81 236.77 1442.97C235.944 1442.12 235.531 1441.05 235.531 1439.75C235.531 1438.63 235.834 1437.66 236.44 1436.85C237.054 1436.04 237.914 1435.42 239.02 1434.98C240.134 1434.54 241.437 1434.32 242.929 1434.32C245.134 1434.32 246.868 1434.78 248.134 1435.72C249.406 1436.65 250.149 1437.92 250.361 1439.52Z" fill="black"/>
<g clip-path="url(#clip1_31_470)">
<path d="M649.5 1444C635.417 1444 624 1455.44 624 1469.56C624 1475.86 626.286 1481.62 630.058 1486.08L649.5 1509.03L668.942 1486.08C672.714 1481.62 675 1475.86 675 1469.56C675.001 1455.44 663.584 1444 649.5 1444ZM649.5 1479.19C643.708 1479.19 639.013 1474.49 639.013 1468.68C639.013 1462.87 643.708 1458.17 649.5 1458.17C655.292 1458.17 659.987 1462.87 659.987 1468.68C659.987 1474.49 655.292 1479.19 649.5 1479.19Z" fill="#0035F0"/>
</g>
<g clip-path="url(#clip2_31_470)">
<path d="M1614.78 48.6875C1596.12 48.6875 1581 63.7078 1581 82.2362C1581 90.5079 1584.03 98.0674 1589.03 103.917L1614.78 134.041L1640.53 103.916C1645.53 98.0674 1648.56 90.5069 1648.56 82.2352C1648.56 63.7078 1633.44 48.6875 1614.78 48.6875ZM1614.78 94.878C1607.11 94.878 1600.89 88.7012 1600.89 81.0811C1600.89 73.4609 1607.11 67.2841 1614.78 67.2841C1622.45 67.2841 1628.67 73.4609 1628.67 81.0811C1628.67 88.7012 1622.45 94.878 1614.78 94.878Z" fill="#0035F0"/>
</g>
<path d="M123.068 1383V1313.18H169.295V1325.35H137.83V1341.99H166.227V1354.16H137.83V1383H123.068ZM193.227 1383.99C189.886 1383.99 186.909 1383.41 184.295 1382.25C181.682 1381.07 179.614 1379.33 178.091 1377.03C176.591 1374.72 175.841 1371.83 175.841 1368.38C175.841 1365.47 176.375 1363.02 177.443 1361.05C178.511 1359.07 179.966 1357.48 181.807 1356.27C183.648 1355.07 185.739 1354.16 188.08 1353.55C190.443 1352.93 192.92 1352.5 195.511 1352.25C198.557 1351.93 201.011 1351.64 202.875 1351.36C204.739 1351.07 206.091 1350.64 206.932 1350.07C207.773 1349.5 208.193 1348.66 208.193 1347.55V1347.34C208.193 1345.18 207.511 1343.51 206.148 1342.33C204.807 1341.15 202.898 1340.56 200.42 1340.56C197.807 1340.56 195.727 1341.14 194.182 1342.3C192.636 1343.43 191.614 1344.86 191.114 1346.59L177.682 1345.5C178.364 1342.32 179.705 1339.57 181.705 1337.25C183.705 1334.91 186.284 1333.11 189.443 1331.86C192.625 1330.59 196.307 1329.95 200.489 1329.95C203.398 1329.95 206.182 1330.3 208.841 1330.98C211.523 1331.66 213.898 1332.72 215.966 1334.15C218.057 1335.58 219.705 1337.42 220.909 1339.67C222.114 1341.9 222.716 1344.57 222.716 1347.68V1383H208.943V1375.74H208.534C207.693 1377.38 206.568 1378.82 205.159 1380.07C203.75 1381.3 202.057 1382.26 200.08 1382.97C198.102 1383.65 195.818 1383.99 193.227 1383.99ZM197.386 1373.97C199.523 1373.97 201.409 1373.55 203.045 1372.7C204.682 1371.84 205.966 1370.68 206.898 1369.23C207.83 1367.77 208.295 1366.12 208.295 1364.28V1358.73C207.841 1359.02 207.216 1359.3 206.42 1359.55C205.648 1359.77 204.773 1359.99 203.795 1360.19C202.818 1360.37 201.841 1360.55 200.864 1360.7C199.886 1360.84 199 1360.97 198.205 1361.08C196.5 1361.33 195.011 1361.73 193.739 1362.27C192.466 1362.82 191.477 1363.56 190.773 1364.49C190.068 1365.4 189.716 1366.53 189.716 1367.9C189.716 1369.88 190.432 1371.39 191.864 1372.43C193.318 1373.45 195.159 1373.97 197.386 1373.97ZM277.551 1345.57L264.256 1346.39C264.028 1345.25 263.54 1344.23 262.79 1343.32C262.04 1342.39 261.051 1341.65 259.824 1341.1C258.619 1340.53 257.176 1340.25 255.494 1340.25C253.244 1340.25 251.347 1340.73 249.801 1341.68C248.256 1342.61 247.483 1343.86 247.483 1345.43C247.483 1346.68 247.983 1347.74 248.983 1348.6C249.983 1349.47 251.699 1350.16 254.131 1350.68L263.608 1352.59C268.699 1353.64 272.494 1355.32 274.994 1357.64C277.494 1359.95 278.744 1363 278.744 1366.77C278.744 1370.2 277.733 1373.22 275.71 1375.81C273.71 1378.4 270.96 1380.42 267.46 1381.88C263.983 1383.31 259.972 1384.02 255.426 1384.02C248.494 1384.02 242.972 1382.58 238.858 1379.69C234.767 1376.78 232.369 1372.83 231.665 1367.83L245.949 1367.08C246.381 1369.19 247.426 1370.81 249.085 1371.92C250.744 1373.01 252.869 1373.56 255.46 1373.56C258.006 1373.56 260.051 1373.07 261.597 1372.09C263.165 1371.09 263.96 1369.81 263.983 1368.24C263.96 1366.92 263.403 1365.84 262.312 1365C261.222 1364.14 259.54 1363.48 257.267 1363.02L248.199 1361.22C243.085 1360.19 239.278 1358.42 236.778 1355.9C234.301 1353.37 233.062 1350.16 233.062 1346.25C233.062 1342.89 233.972 1339.99 235.79 1337.56C237.631 1335.12 240.21 1333.25 243.528 1331.93C246.869 1330.61 250.778 1329.95 255.256 1329.95C261.869 1329.95 267.074 1331.35 270.869 1334.15C274.688 1336.94 276.915 1340.75 277.551 1345.57ZM315.741 1330.64V1341.55H284.207V1330.64H315.741ZM291.366 1318.09H305.889V1366.91C305.889 1368.25 306.094 1369.3 306.503 1370.05C306.912 1370.77 307.48 1371.28 308.207 1371.58C308.957 1371.87 309.821 1372.02 310.798 1372.02C311.48 1372.02 312.162 1371.97 312.844 1371.85C313.526 1371.72 314.048 1371.61 314.412 1371.55L316.696 1382.35C315.969 1382.58 314.946 1382.84 313.628 1383.14C312.31 1383.45 310.707 1383.65 308.821 1383.72C305.321 1383.85 302.253 1383.39 299.616 1382.32C297.003 1381.25 294.969 1379.59 293.514 1377.34C292.06 1375.09 291.344 1372.25 291.366 1368.82V1318.09ZM347.693 1383V1313.18H393.92V1325.35H362.455V1341.99H390.852V1354.16H362.455V1383H347.693ZM423.392 1384.02C418.097 1384.02 413.517 1382.9 409.653 1380.65C405.813 1378.37 402.847 1375.22 400.756 1371.17C398.665 1367.1 397.619 1362.39 397.619 1357.02C397.619 1351.61 398.665 1346.89 400.756 1342.84C402.847 1338.77 405.813 1335.61 409.653 1333.36C413.517 1331.09 418.097 1329.95 423.392 1329.95C428.688 1329.95 433.256 1331.09 437.097 1333.36C440.96 1335.61 443.938 1338.77 446.028 1342.84C448.119 1346.89 449.165 1351.61 449.165 1357.02C449.165 1362.39 448.119 1367.1 446.028 1371.17C443.938 1375.22 440.96 1378.37 437.097 1380.65C433.256 1382.9 428.688 1384.02 423.392 1384.02ZM423.46 1372.77C425.869 1372.77 427.881 1372.09 429.494 1370.73C431.108 1369.34 432.324 1367.45 433.142 1365.07C433.983 1362.68 434.403 1359.97 434.403 1356.92C434.403 1353.88 433.983 1351.16 433.142 1348.77C432.324 1346.39 431.108 1344.5 429.494 1343.11C427.881 1341.73 425.869 1341.03 423.46 1341.03C421.028 1341.03 418.983 1341.73 417.324 1343.11C415.688 1344.5 414.449 1346.39 413.608 1348.77C412.79 1351.16 412.381 1353.88 412.381 1356.92C412.381 1359.97 412.79 1362.68 413.608 1365.07C414.449 1367.45 415.688 1369.34 417.324 1370.73C418.983 1372.09 421.028 1372.77 423.46 1372.77ZM482.267 1384.02C476.972 1384.02 472.392 1382.9 468.528 1380.65C464.688 1378.37 461.722 1375.22 459.631 1371.17C457.54 1367.1 456.494 1362.39 456.494 1357.02C456.494 1351.61 457.54 1346.89 459.631 1342.84C461.722 1338.77 464.688 1335.61 468.528 1333.36C472.392 1331.09 476.972 1329.95 482.267 1329.95C487.562 1329.95 492.131 1331.09 495.972 1333.36C499.835 1335.61 502.812 1338.77 504.903 1342.84C506.994 1346.89 508.04 1351.61 508.04 1357.02C508.04 1362.39 506.994 1367.1 504.903 1371.17C502.812 1375.22 499.835 1378.37 495.972 1380.65C492.131 1382.9 487.562 1384.02 482.267 1384.02ZM482.335 1372.77C484.744 1372.77 486.756 1372.09 488.369 1370.73C489.983 1369.34 491.199 1367.45 492.017 1365.07C492.858 1362.68 493.278 1359.97 493.278 1356.92C493.278 1353.88 492.858 1351.16 492.017 1348.77C491.199 1346.39 489.983 1344.5 488.369 1343.11C486.756 1341.73 484.744 1341.03 482.335 1341.03C479.903 1341.03 477.858 1341.73 476.199 1343.11C474.563 1344.5 473.324 1346.39 472.483 1348.77C471.665 1351.16 471.256 1353.88 471.256 1356.92C471.256 1359.97 471.665 1362.68 472.483 1365.07C473.324 1367.45 474.563 1369.34 476.199 1370.73C477.858 1372.09 479.903 1372.77 482.335 1372.77ZM536.778 1383.85C532.801 1383.85 529.199 1382.83 525.972 1380.78C522.767 1378.72 520.222 1375.68 518.335 1371.68C516.472 1367.66 515.54 1362.73 515.54 1356.89C515.54 1350.89 516.506 1345.9 518.438 1341.92C520.369 1337.92 522.938 1334.93 526.142 1332.95C529.369 1330.95 532.903 1329.95 536.744 1329.95C539.676 1329.95 542.119 1330.45 544.074 1331.45C546.051 1332.43 547.642 1333.66 548.847 1335.14C550.074 1336.59 551.006 1338.02 551.642 1339.43H552.085V1313.18H566.574V1383H552.256V1374.61H551.642C550.96 1376.07 549.994 1377.51 548.744 1378.94C547.517 1380.35 545.915 1381.52 543.938 1382.45C541.983 1383.39 539.597 1383.85 536.778 1383.85ZM541.381 1372.3C543.722 1372.3 545.699 1371.66 547.312 1370.39C548.949 1369.09 550.199 1367.28 551.062 1364.97C551.949 1362.65 552.392 1359.93 552.392 1356.82C552.392 1353.7 551.96 1351 551.097 1348.7C550.233 1346.41 548.983 1344.64 547.347 1343.39C545.71 1342.14 543.722 1341.51 541.381 1341.51C538.994 1341.51 536.983 1342.16 535.347 1343.45C533.71 1344.75 532.472 1346.55 531.631 1348.84C530.79 1351.14 530.369 1353.8 530.369 1356.82C530.369 1359.86 530.79 1362.56 531.631 1364.9C532.494 1367.22 533.733 1369.03 535.347 1370.35C536.983 1371.65 538.994 1372.3 541.381 1372.3ZM638.881 1333.26C638.608 1330.51 637.438 1328.37 635.369 1326.85C633.301 1325.33 630.494 1324.57 626.949 1324.57C624.54 1324.57 622.506 1324.91 620.847 1325.59C619.188 1326.25 617.915 1327.17 617.028 1328.35C616.165 1329.53 615.733 1330.88 615.733 1332.38C615.688 1333.62 615.949 1334.72 616.517 1335.65C617.108 1336.58 617.915 1337.39 618.938 1338.07C619.96 1338.73 621.142 1339.31 622.483 1339.81C623.824 1340.28 625.256 1340.69 626.778 1341.03L633.051 1342.53C636.097 1343.22 638.892 1344.12 641.438 1345.26C643.983 1346.4 646.188 1347.8 648.051 1349.45C649.915 1351.11 651.358 1353.07 652.381 1355.32C653.426 1357.57 653.96 1360.15 653.983 1363.06C653.96 1367.33 652.869 1371.03 650.71 1374.17C648.574 1377.28 645.483 1379.7 641.438 1381.43C637.415 1383.14 632.563 1383.99 626.881 1383.99C621.244 1383.99 616.335 1383.12 612.153 1381.4C607.994 1379.67 604.744 1377.11 602.403 1373.73C600.085 1370.32 598.869 1366.1 598.756 1361.08H613.04C613.199 1363.42 613.869 1365.37 615.051 1366.94C616.256 1368.49 617.858 1369.66 619.858 1370.45C621.881 1371.23 624.165 1371.61 626.71 1371.61C629.21 1371.61 631.381 1371.25 633.222 1370.52C635.085 1369.8 636.528 1368.78 637.551 1367.49C638.574 1366.19 639.085 1364.7 639.085 1363.02C639.085 1361.45 638.619 1360.14 637.688 1359.07C636.778 1358 635.438 1357.09 633.665 1356.34C631.915 1355.59 629.767 1354.91 627.222 1354.3L619.619 1352.39C613.733 1350.95 609.085 1348.72 605.676 1345.67C602.267 1342.62 600.574 1338.52 600.597 1333.36C600.574 1329.14 601.699 1325.44 603.972 1322.28C606.267 1319.12 609.415 1316.66 613.415 1314.89C617.415 1313.11 621.96 1312.23 627.051 1312.23C632.233 1312.23 636.756 1313.11 640.619 1314.89C644.506 1316.66 647.528 1319.12 649.688 1322.28C651.847 1325.44 652.96 1329.1 653.028 1333.26H638.881ZM687.503 1384.02C682.116 1384.02 677.48 1382.93 673.594 1380.75C669.73 1378.55 666.753 1375.43 664.662 1371.41C662.571 1367.36 661.526 1362.58 661.526 1357.06C661.526 1351.67 662.571 1346.94 664.662 1342.88C666.753 1338.81 669.696 1335.64 673.491 1333.36C677.31 1331.09 681.787 1329.95 686.923 1329.95C690.378 1329.95 693.594 1330.51 696.571 1331.62C699.571 1332.72 702.185 1334.36 704.412 1336.57C706.662 1338.77 708.412 1341.55 709.662 1344.89C710.912 1348.2 711.537 1352.09 711.537 1356.55V1360.53H667.321V1351.53H697.866C697.866 1349.44 697.412 1347.59 696.503 1345.98C695.594 1344.36 694.332 1343.1 692.719 1342.19C691.128 1341.26 689.276 1340.8 687.162 1340.8C684.957 1340.8 683.003 1341.31 681.298 1342.33C679.616 1343.33 678.298 1344.68 677.344 1346.39C676.389 1348.07 675.901 1349.94 675.878 1352.01V1360.57C675.878 1363.16 676.355 1365.4 677.31 1367.28C678.287 1369.17 679.662 1370.62 681.435 1371.65C683.207 1372.67 685.31 1373.18 687.741 1373.18C689.355 1373.18 690.832 1372.95 692.173 1372.5C693.514 1372.05 694.662 1371.36 695.616 1370.45C696.571 1369.55 697.298 1368.43 697.798 1367.11L711.23 1368C710.548 1371.23 709.151 1374.05 707.037 1376.45C704.946 1378.84 702.241 1380.7 698.923 1382.05C695.628 1383.36 691.821 1384.02 687.503 1384.02ZM744.673 1384.02C739.31 1384.02 734.696 1382.89 730.832 1380.61C726.991 1378.32 724.037 1375.14 721.969 1371.07C719.923 1367 718.901 1362.32 718.901 1357.02C718.901 1351.66 719.935 1346.95 722.003 1342.91C724.094 1338.84 727.06 1335.67 730.901 1333.4C734.741 1331.1 739.31 1329.95 744.605 1329.95C749.173 1329.95 753.173 1330.78 756.605 1332.44C760.037 1334.1 762.753 1336.43 764.753 1339.43C766.753 1342.43 767.855 1345.95 768.06 1350H754.355C753.969 1347.39 752.946 1345.28 751.287 1343.69C749.651 1342.08 747.503 1341.27 744.844 1341.27C742.594 1341.27 740.628 1341.89 738.946 1343.11C737.287 1344.32 735.991 1346.08 735.06 1348.4C734.128 1350.72 733.662 1353.52 733.662 1356.82C733.662 1360.16 734.116 1363 735.026 1365.34C735.957 1367.68 737.264 1369.47 738.946 1370.69C740.628 1371.92 742.594 1372.53 744.844 1372.53C746.503 1372.53 747.991 1372.19 749.31 1371.51C750.651 1370.83 751.753 1369.84 752.616 1368.55C753.503 1367.23 754.082 1365.65 754.355 1363.81H768.06C767.832 1367.81 766.741 1371.33 764.787 1374.38C762.855 1377.4 760.185 1379.76 756.776 1381.47C753.366 1383.17 749.332 1384.02 744.673 1384.02ZM805.21 1330.64V1341.55H773.676V1330.64H805.21ZM780.835 1318.09H795.358V1366.91C795.358 1368.25 795.563 1369.3 795.972 1370.05C796.381 1370.77 796.949 1371.28 797.676 1371.58C798.426 1371.87 799.29 1372.02 800.267 1372.02C800.949 1372.02 801.631 1371.97 802.312 1371.85C802.994 1371.72 803.517 1371.61 803.881 1371.55L806.165 1382.35C805.438 1382.58 804.415 1382.84 803.097 1383.14C801.778 1383.45 800.176 1383.65 798.29 1383.72C794.79 1383.85 791.722 1383.39 789.085 1382.32C786.472 1381.25 784.438 1379.59 782.983 1377.34C781.528 1375.09 780.813 1372.25 780.835 1368.82V1318.09ZM814.67 1383V1330.64H829.193V1383H814.67ZM821.966 1323.89C819.807 1323.89 817.955 1323.17 816.409 1321.74C814.886 1320.28 814.125 1318.55 814.125 1316.52C814.125 1314.52 814.886 1312.81 816.409 1311.38C817.955 1309.92 819.807 1309.19 821.966 1309.19C824.125 1309.19 825.966 1309.92 827.489 1311.38C829.034 1312.81 829.807 1314.52 829.807 1316.52C829.807 1318.55 829.034 1320.28 827.489 1321.74C825.966 1323.17 824.125 1323.89 821.966 1323.89ZM864.486 1384.02C859.19 1384.02 854.611 1382.9 850.747 1380.65C846.906 1378.37 843.94 1375.22 841.849 1371.17C839.759 1367.1 838.713 1362.39 838.713 1357.02C838.713 1351.61 839.759 1346.89 841.849 1342.84C843.94 1338.77 846.906 1335.61 850.747 1333.36C854.611 1331.09 859.19 1329.95 864.486 1329.95C869.781 1329.95 874.349 1331.09 878.19 1333.36C882.054 1335.61 885.031 1338.77 887.122 1342.84C889.213 1346.89 890.259 1351.61 890.259 1357.02C890.259 1362.39 889.213 1367.1 887.122 1371.17C885.031 1375.22 882.054 1378.37 878.19 1380.65C874.349 1382.9 869.781 1384.02 864.486 1384.02ZM864.554 1372.77C866.963 1372.77 868.974 1372.09 870.588 1370.73C872.202 1369.34 873.418 1367.45 874.236 1365.07C875.077 1362.68 875.497 1359.97 875.497 1356.92C875.497 1353.88 875.077 1351.16 874.236 1348.77C873.418 1346.39 872.202 1344.5 870.588 1343.11C868.974 1341.73 866.963 1341.03 864.554 1341.03C862.122 1341.03 860.077 1341.73 858.418 1343.11C856.781 1344.5 855.543 1346.39 854.702 1348.77C853.884 1351.16 853.474 1353.88 853.474 1356.92C853.474 1359.97 853.884 1362.68 854.702 1365.07C855.543 1367.45 856.781 1369.34 858.418 1370.73C860.077 1372.09 862.122 1372.77 864.554 1372.77ZM914.224 1352.73V1383H899.702V1330.64H913.543V1339.88H914.156C915.315 1336.83 917.259 1334.42 919.986 1332.65C922.713 1330.85 926.02 1329.95 929.906 1329.95C933.543 1329.95 936.713 1330.75 939.418 1332.34C942.122 1333.93 944.224 1336.2 945.724 1339.16C947.224 1342.09 947.974 1345.59 947.974 1349.66V1383H933.452V1352.25C933.474 1349.05 932.656 1346.55 930.997 1344.75C929.338 1342.93 927.054 1342.02 924.145 1342.02C922.19 1342.02 920.463 1342.44 918.963 1343.28C917.486 1344.12 916.327 1345.35 915.486 1346.97C914.668 1348.56 914.247 1350.48 914.224 1352.73Z" fill="black"/>
<g clip-path="url(#clip3_31_470)">
<path d="M647.909 1539.76C635.257 1539.76 625 1550.37 625 1563.45C625 1569.29 627.054 1574.63 630.443 1578.76L647.909 1600.02L665.376 1578.75C668.765 1574.63 670.818 1569.29 670.818 1563.45C670.819 1550.37 660.562 1539.76 647.909 1539.76ZM647.909 1572.37C642.706 1572.37 638.488 1568.01 638.488 1562.63C638.488 1557.25 642.706 1552.89 647.909 1552.89C653.113 1552.89 657.331 1557.25 657.331 1562.63C657.331 1568.01 653.113 1572.37 647.909 1572.37Z" fill="#F00000"/>
</g>
<g clip-path="url(#clip4_31_470)">
<path d="M877.899 253C861.386 253 848 266.908 848 284.064C848 291.723 850.68 298.722 855.103 304.138L877.899 332.031L900.694 304.138C905.117 298.722 907.797 291.722 907.797 284.063C907.798 266.908 894.411 253 877.899 253ZM877.899 295.769C871.108 295.769 865.603 290.05 865.603 282.994C865.603 275.938 871.108 270.219 877.899 270.219C884.69 270.219 890.195 275.938 890.195 282.994C890.195 290.05 884.69 295.769 877.899 295.769Z" fill="#F00000"/>
</g>
<rect x="2210" y="234" width="61" height="478" fill="#D9D9D9" stroke="black" stroke-width="4"/>
</g>
<defs>
<clipPath id="clip0_31_470">
<rect width="2254" height="1629" fill="white"/>
</clipPath>
<clipPath id="clip1_31_470">
<rect width="77" height="80" fill="white" transform="translate(624 1429)"/>
</clipPath>
<clipPath id="clip2_31_470">
<rect width="102" height="105" fill="white" transform="translate(1581 29)"/>
</clipPath>
<clipPath id="clip3_31_470">
<rect width="59" height="61" fill="white" transform="translate(625 1539)"/>
</clipPath>
<clipPath id="clip4_31_470">
<rect width="77" height="80" fill="white" transform="translate(848 252)"/>
</clipPath>
</defs>
</svg>
